<?xml version="1.0" standalone="no"?>
<!DOCTYPE svg PUBLIC "-//W3C//DTD SVG 20010904//EN"
 "http://www.w3.org/TR/2001/REC-SVG-20010904/DTD/svg10.dtd">
<svg version="1.0" xmlns="http://www.w3.org/2000/svg"
 width="48.000000pt" height="48.000000pt" viewBox="0 0 48.000000 48.000000"
 preserveAspectRatio="xMidYMid meet">

<g transform="translate(0.000000,48.000000) scale(0.100000,-0.100000)"
fill="#000000" stroke="none">
<path d="M67 402 c-14 -16 -17 -42 -17 -164 0 -128 2 -147 18 -161 24 -22 122
-24 122 -3 0 11 -15 16 -52 18 l-53 3 -3 98 -3 97 41 0 40 0 0 -85 c0 -69 3
-85 15 -85 12 0 15 16 15 85 l0 85 105 0 106 0 -3 -97 -3 -98 -37 -3 -38 -3 0
85 c0 70 -3 86 -15 86 -12 0 -15 -16 -15 -84 l0 -85 -27 -3 c-58 -6 -25 -23
51 -26 116 -4 116 -4 116 178 0 130 -2 149 -18 163 -10 10 -31 17 -45 17 -36
0 -36 -28 1 -32 22 -2 28 -8 30 -35 l3 -33 -161 0 -161 0 3 33 3 32 110 5
c145 7 144 24 -1 28 -97 2 -112 0 -127 -16z"/>
<path d="M306 363 c-11 -11 -6 -23 9 -23 8 0 15 4 15 9 0 13 -16 22 -24 14z"/>
<path d="M356 363 c-11 -11 -6 -23 9 -23 8 0 15 4 15 9 0 13 -16 22 -24 14z"/>
</g>
</svg>
